<svg width="20" height="16" viewBox="0 0 20 16" fill="none" xmlns="http://www.w3.org/2000/svg">
<path d="M2.18567 6.55353C1.31683 6.55353 0.615479 7.25488 0.615479 8.12372C0.615479 8.99256 1.31683 9.69391 2.18567 9.69391C3.05451 9.69391 3.75586 8.99256 3.75586 8.12372C3.75586 7.25488 3.05451 6.55353 2.18567 6.55353ZM2.18567 0.272766C1.31683 0.272766 0.615479 0.974118 0.615479 1.84296C0.615479 2.71179 1.31683 3.41315 2.18567 3.41315C3.05451 3.41315 3.75586 2.71179 3.75586 1.84296C3.75586 0.974118 3.05451 0.272766 2.18567 0.272766ZM2.18567 12.8343C1.31683 12.8343 0.615479 13.5461 0.615479 14.4045C0.615479 15.2628 1.3273 15.9747 2.18567 15.9747C3.04404 15.9747 3.75586 15.2628 3.75586 14.4045C3.75586 13.5461 3.05451 12.8343 2.18567 12.8343ZM5.32605 15.4513H19.9812V13.3577H5.32605V15.4513ZM5.32605 9.17051H19.9812V7.07692H5.32605V9.17051ZM5.32605 0.796163V2.88975H19.9812V0.796163H5.32605Z" fill="#808080"/>
</svg>
